<svg width="66" height="66" viewBox="0 0 66 66" fill="none" xmlns="http://www.w3.org/2000/svg">
<path d="M59.0332 22.0656L32.358 4.28211C32.0306 4.06384 31.6045 4.06384 31.2771 4.28211L4.6019 22.0656C4.33102 22.2462 4.16797 22.5508 4.16797 22.8763C4.16797 23.2017 4.33037 23.5064 4.6019 23.687L8.65346 26.388V40.6227C8.65346 40.9547 8.82236 41.2639 9.10168 41.4432L31.4473 55.7688C31.6077 55.8714 31.7903 55.9227 31.9735 55.9227C32.1651 55.9227 32.3574 55.8662 32.5224 55.7532L44.1808 47.7995V53.3458L39.8375 62.0322C39.6868 62.3343 39.7031 62.6935 39.8798 62.9807C40.0571 63.2671 40.3715 63.4425 40.7086 63.4425H49.601C49.9388 63.4425 50.2526 63.2671 50.4299 62.9807C50.6066 62.6935 50.6235 62.3343 50.4721 62.0322L46.1289 53.3458V46.4698L53.5194 41.4276C53.7851 41.2463 53.9443 40.9449 53.9443 40.6227V27.0792L59.0326 23.687C59.3035 23.5064 59.4665 23.2017 59.4665 22.8763C59.4665 22.5508 59.3041 22.2462 59.0332 22.0656ZM42.2859 61.4937L45.1552 55.7551L48.0244 61.4937H42.2859ZM31.9566 53.7804L10.6023 40.09V27.6872L31.2771 41.4711C31.4408 41.5802 31.6292 41.6348 31.8176 41.6348C32.006 41.6348 32.1943 41.5802 32.358 41.4711L44.1808 33.5888V45.4401L31.9566 53.7804ZM51.9961 40.1082L46.1296 44.1111V32.2896L51.9961 28.3784V40.1082ZM52.6321 25.6124C52.4885 25.6657 52.3618 25.7508 52.2592 25.8612L45.1552 30.5974L32.358 22.0656C31.9092 21.7668 31.305 21.8882 31.0069 22.3358C30.7087 22.7834 30.8295 23.3888 31.2771 23.687L43.3986 31.768L31.8176 39.4892L6.89889 22.8763L31.8176 6.26404L56.7362 22.8763L52.6321 25.6124Z" fill="black"/>
</svg>
