<svg width="25" height="25" viewBox="0 0 25 25" fill="none" xmlns="http://www.w3.org/2000/svg">
<g clip-path="url(#clip0)">
<path d="M0.152588 12.1316L7.96509 4.3191C8.16855 4.11564 8.49814 4.11564 8.70156 4.3191C8.90503 4.52257 8.90503 4.85216 8.70156 5.05558L1.77812 11.979H24.4792C24.767 11.979 25 12.212 25 12.4999C25 12.7878 24.767 13.0207 24.4792 13.0207H1.77812L8.70156 19.9441C8.90503 20.1476 8.90503 20.4772 8.70156 20.6806C8.59985 20.7823 8.46655 20.8332 8.3333 20.8332C8.20005 20.8332 8.0668 20.7823 7.96504 20.6806L0.152538 12.8681C-0.0508785 12.6647 -0.0508785 12.3351 0.152588 12.1316Z" fill="#2C3E50" fill-opacity="0.3"/>
</g>
<defs>
<clipPath id="clip0">
<rect width="25" height="25" fill="white" transform="matrix(-1 0 0 1 25 0)"/>
</clipPath>
</defs>
</svg>
